<svg width="10" height="10" viewBox="0 0 10 10" fill="none" xmlns="http://www.w3.org/2000/svg">
<path d="M9.96643 5.91837C9.91532 5.10204 9.76199 3.97959 9.60866 3.21429C9.50644 2.55102 8.89312 2.09184 8.22869 2.09184H1.78885C1.12442 2.09184 0.511099 2.60204 0.408879 3.21429C0.306659 3.97959 0.10222 5.05102 0.0511098 5.91837C-4.95038e-08 6.73469 0 7.7551 0 8.52041C0 9.2347 0.562209 9.79592 1.27775 9.84694C2.35105 9.89796 3.83324 10 4.95766 10C6.08208 10 7.56426 9.89796 8.63757 9.84694C9.35311 9.79592 9.91532 9.2347 9.91532 8.52041C10.0175 7.7551 10.0175 6.68367 9.96643 5.91837ZM3.47547 5C3.21992 5 2.96437 4.7449 2.96437 4.4898C2.96437 4.23469 3.21992 3.97959 3.47547 3.97959C3.73102 3.97959 3.98657 4.23469 3.98657 4.4898C3.98657 4.7449 3.73102 5 3.47547 5ZM6.54207 5C6.28652 5 6.03097 4.7449 6.03097 4.4898C6.03097 4.23469 6.28652 3.97959 6.54207 3.97959C6.79762 3.97959 7.05316 4.23469 7.05316 4.4898C7.05316 4.7449 6.79762 5 6.54207 5Z" fill="white"/>
<path d="M3.88435 1.42857C3.88435 1.07143 4.19101 0.816327 4.49767 0.816327H5.51987C5.87764 0.816327 6.13319 1.12245 6.13319 1.42857V1.68367H6.89983V1.42857C6.89983 0.663265 6.28652 0 5.46876 0H4.44656C3.73102 0 3.06659 0.663265 3.06659 1.42857V1.68367H3.83324V1.42857H3.88435Z" fill="white"/>
</svg>
