<svg width="14" height="12" viewBox="0 0 14 12" fill="none" xmlns="http://www.w3.org/2000/svg">
<path d="M7.0001 2.50002C7.0001 3.65982 6.0599 4.60002 4.9001 4.60002C3.7403 4.60002 2.8001 3.65982 2.8001 2.50002C2.8001 1.34023 3.7403 0.400024 4.9001 0.400024C6.0599 0.400024 7.0001 1.34023 7.0001 2.50002Z" fill="white"/>
<path d="M1.13079 10.4996C0.85268 10.3215 0.691591 10.0048 0.732332 9.67705C0.990008 7.60443 2.7577 6.00002 4.90003 6.00002C7.04235 6.00002 8.81004 7.60399 9.06772 9.67654C9.10847 10.0042 8.94737 10.321 8.66927 10.4991C7.58125 11.1958 6.2878 11.6 4.90003 11.6C3.51226 11.6 2.21881 11.1962 1.13079 10.4996Z" fill="white"/>
<path d="M11.3751 3.02502C11.3751 2.73507 11.14 2.50002 10.8501 2.50002C10.5601 2.50002 10.3251 2.73507 10.3251 3.02502V4.42502H8.9251C8.63515 4.42502 8.4001 4.66008 8.4001 4.95002C8.4001 5.23997 8.63515 5.47502 8.9251 5.47502H10.3251V6.87502C10.3251 7.16497 10.5601 7.40002 10.8501 7.40002C11.14 7.40002 11.3751 7.16497 11.3751 6.87502V5.47502H12.7751C13.065 5.47502 13.3001 5.23997 13.3001 4.95002C13.3001 4.66008 13.065 4.42502 12.7751 4.42502H11.3751V3.02502Z" fill="white"/>
</svg>
