<svg width="16" height="16" viewBox="0 0 16 16" fill="none" xmlns="http://www.w3.org/2000/svg">
<path d="M13.8965 2.2351L8.60507 0.615559C8.21019 0.461318 7.73633 0.461318 7.26248 0.615559L2.05006 2.2351C0.944394 2.54358 0.312585 3.54615 0.549514 4.62584L1.41825 9.25309C1.81313 11.4125 2.91879 13.1091 4.57729 14.1117C6.07783 15.0372 7.1835 15.4999 8.05224 15.4999C8.92097 15.4999 10.0266 15.0372 11.5272 14.1117C13.1857 13.1091 14.2913 11.4125 14.6862 9.25309L15.476 4.62584C15.6339 3.54615 15.0021 2.54358 13.8965 2.2351ZM10.7374 6.78523L7.57838 9.87006C7.42043 9.94718 7.34145 10.0243 7.1835 10.0243C7.02555 10.0243 6.8676 9.94718 6.78862 9.87006L5.2091 8.32764C4.97217 8.09628 4.97217 7.71068 5.2091 7.47931C5.44603 7.24795 5.84091 7.24795 6.07784 7.47931L7.26248 8.63613L10.0266 5.9369C10.2636 5.70553 10.6584 5.70553 10.8954 5.9369C10.9743 6.24538 10.9743 6.55386 10.7374 6.78523Z" fill="#9DFD52"/>
</svg>
