<svg width="12" height="14" viewBox="0 0 12 14" fill="none" xmlns="http://www.w3.org/2000/svg">
<path d="M10.6716 2.34726C9.5037 1.09726 7.7862 0.333374 6 0.333374C4.2138 0.333374 2.4963 1.02782 1.32839 2.34726C0.366592 3.45837 -0.114308 4.84726 0.0230921 6.23615C0.0230921 6.51393 0.0917922 6.79171 0.160492 7.00004C0.778793 9.91671 3.939 12.4862 5.313 13.4584C5.5191 13.5973 5.7252 13.6667 6 13.6667C6.2748 13.6667 6.4809 13.5973 6.687 13.4584C7.9923 12.4862 11.2212 9.91671 11.8395 7.00004C11.9082 6.79171 11.9082 6.51393 11.9769 6.23615C12.1143 4.84726 11.6334 3.45837 10.6716 2.34726ZM6 8.31948C4.9695 8.31948 4.0764 7.48615 4.0764 6.37504C4.0764 5.26393 4.9008 4.4306 6 4.4306C7.0992 4.4306 7.9236 5.26393 7.9236 6.37504C7.9236 7.48615 7.0305 8.31948 6 8.31948Z" fill="white"/>
</svg>
