<svg width="10" height="10" viewBox="0 0 10 10" fill="none" xmlns="http://www.w3.org/2000/svg">
<path d="M3.53844 0.205127C3.17947 0.102564 2.61537 0 2.20512 0C1.79486 0 1.23076 0.102564 0.871791 0.205127C0.512818 0.256409 0.256409 0.512818 0.205127 0.87179C0.102564 1.23076 0 1.79486 0 2.20512C0 2.61537 0.102564 3.17947 0.153845 3.53844C0.205127 3.89742 0.512818 4.15382 0.820509 4.20511C1.17948 4.25639 1.74358 4.35895 2.15384 4.35895C2.56409 4.35895 3.12819 4.25639 3.48716 4.20511C3.84613 4.15382 4.10254 3.84613 4.15383 3.53844C4.20511 3.17947 4.30767 2.61537 4.30767 2.20512C4.30767 1.79486 4.20511 1.23076 4.15383 0.87179C4.15383 0.512818 3.89742 0.256409 3.53844 0.205127Z" fill="white"/>
<path d="M3.53842 5.84615C3.17945 5.79487 2.61535 5.69231 2.20509 5.69231C1.79484 5.69231 1.23074 5.79487 0.871766 5.84615C0.512793 5.89743 0.256384 6.20512 0.205102 6.51282C0.15382 6.87179 0.0512569 7.43589 0.0512569 7.84614C0.0512569 8.2564 0.15382 8.8205 0.205102 9.17947C0.256384 9.53844 0.564075 9.79485 0.871766 9.84613C1.23074 9.89741 1.79484 9.99998 2.20509 9.99998C2.61535 9.99998 3.17945 9.89741 3.53842 9.84613C3.89739 9.79485 4.1538 9.48716 4.20508 9.17947C4.25636 8.8205 4.35893 8.2564 4.35893 7.84614C4.35893 7.43589 4.25636 6.87179 4.20508 6.51282C4.1538 6.15384 3.89739 5.89743 3.53842 5.84615Z" fill="white"/>
<path d="M6.51275 4.2052C6.87173 4.25649 7.43583 4.35905 7.84608 4.35905C8.25634 4.35905 8.82044 4.25649 9.17941 4.2052C9.53838 4.15392 9.79479 3.84623 9.84607 3.53854C9.89735 3.17957 9.99992 2.61547 9.99992 2.20521C9.99992 1.79496 9.89735 1.23086 9.84607 0.871887C9.79479 0.512915 9.4871 0.256506 9.17941 0.205224C8.82044 0.153942 8.25634 0.0513783 7.84608 0.0513783C7.43583 0.0513783 6.87173 0.153942 6.51275 0.205224C6.15378 0.256506 5.89737 0.564196 5.84609 0.871887C5.79481 1.23086 5.69225 1.79496 5.69225 2.20521C5.69225 2.61547 5.79481 3.17957 5.84609 3.53854C5.89737 3.89751 6.15378 4.15392 6.51275 4.2052Z" fill="white"/>
<path d="M9.17941 5.84615C8.82044 5.79487 8.25634 5.69231 7.84608 5.69231C7.43583 5.69231 6.87173 5.79487 6.51275 5.84615C6.15378 5.89743 5.89737 6.20512 5.84609 6.51282C5.79481 6.87179 5.69225 7.43589 5.69225 7.84614C5.69225 8.2564 5.79481 8.8205 5.84609 9.17947C5.89737 9.53844 6.20506 9.79485 6.51275 9.84613C6.87173 9.89741 7.43583 9.99998 7.84608 9.99998C8.25634 9.99998 8.82044 9.89741 9.17941 9.84613C9.53838 9.79485 9.79479 9.48716 9.84607 9.17947C9.89735 8.8205 9.99992 8.2564 9.99992 7.84614C9.99992 7.43589 9.89735 6.87179 9.84607 6.51282C9.79479 6.15384 9.53838 5.89743 9.17941 5.84615Z" fill="white"/>
</svg>
