<svg width="10" height="12" viewBox="0 0 10 12" fill="none" xmlns="http://www.w3.org/2000/svg">
<path d="M4.99992 7.62379C6.13667 7.62379 7.03411 6.78187 7.15377 5.69939C7.21359 4.97775 7.27342 4.37637 7.27342 3.89527C7.27342 3.41417 7.27342 2.8128 7.15377 2.09115C7.03411 1.00867 6.13667 0.166748 4.99992 0.166748C4.46146 0.166748 3.923 0.34716 3.56402 0.707985C3.20505 1.06881 2.9059 1.48977 2.84607 2.03101C2.78624 2.75266 2.72641 3.35403 2.72641 3.83513C2.72641 4.31623 2.72641 4.91761 2.84607 5.63926C2.96573 6.78187 3.86317 7.62379 4.99992 7.62379Z" fill="white"/>
<path d="M9.18795 3.65475C8.94864 3.65475 8.70932 3.83516 8.70932 4.13585C8.70932 4.61695 8.64949 5.21832 8.58966 5.93997C8.41018 7.7441 6.85462 9.12726 4.94009 9.12726C3.02556 9.12726 1.52983 7.7441 1.35035 5.93997C1.29052 5.21832 1.23069 4.61695 1.23069 4.13585C1.23069 3.8953 1.0512 3.65475 0.752056 3.65475C0.45291 3.65475 0.333252 3.8953 0.333252 4.13585C0.333252 4.67709 0.393081 5.27846 0.45291 6.00011C0.632397 8.10492 2.36744 9.78877 4.52129 9.96918V11.3523C4.52129 11.5929 4.70077 11.8334 4.99992 11.8334C5.29906 11.8334 5.47855 11.653 5.47855 11.3523V9.96918C7.6324 9.78877 9.36744 8.10492 9.54693 6.00011C9.60676 5.27846 9.66658 4.61695 9.66658 4.13585C9.66658 3.8953 9.42727 3.65475 9.18795 3.65475Z" fill="white"/>
</svg>
