<svg width="35" height="40" viewBox="0 0 35 40" fill="none" xmlns="http://www.w3.org/2000/svg">
<path d="M17.9609 0C8.58724 0 0.960938 7.77584 0.960938 17.3333V30.2357L7.66286 32.9701L9.04248 40H12.7302V34.6667H15.3456V40H16.6532V34.6667H19.2686V40H20.5763V34.6667H23.1917V40H26.8794L28.259 32.9701L34.9609 30.2357V17.3333C34.9609 7.77584 27.3347 0 17.9609 0ZM10.7686 26.6667C9.86339 26.6667 8.9785 26.3931 8.22582 25.8803C7.47317 25.3675 6.88651 24.6386 6.5401 23.7859C6.19369 22.9331 6.10304 21.9948 6.27966 21.0896C6.45625 20.1843 6.89216 19.3528 7.53225 18.7002C8.17236 18.0475 8.98787 17.6031 9.87571 17.423C10.7636 17.2429 11.6838 17.3354 12.5202 17.6886C13.3565 18.0418 14.0713 18.6399 14.5742 19.4073C15.0771 20.1748 15.3456 21.077 15.3456 22C15.3442 23.2373 14.8616 24.4235 14.0036 25.2984C13.1455 26.1733 11.9821 26.6653 10.7686 26.6667ZM14.9786 32L16.9802 25.3333H18.9417L20.9433 32H14.9786ZM25.1532 26.6667C24.2481 26.6667 23.363 26.3931 22.6104 25.8803C21.8578 25.3675 21.2711 24.6386 20.9247 23.7859C20.5783 22.9331 20.4877 21.9948 20.6643 21.0896C20.8409 20.1843 21.2768 19.3528 21.9169 18.7002C22.557 18.0475 23.3724 17.6031 24.2604 17.423C25.1483 17.2429 26.0684 17.3354 26.9048 17.6886C27.7412 18.0418 28.456 18.6399 28.9589 19.4073C29.4618 20.1748 29.7302 21.077 29.7302 22C29.7289 23.2373 29.2463 24.4235 28.3882 25.2984C27.5301 26.1733 26.3668 26.6653 25.1532 26.6667Z" fill="white"/>
</svg>
