<svg width="12" height="12" viewBox="0 0 12 12" fill="none" xmlns="http://www.w3.org/2000/svg">
<path d="M1.02879 0.402511C0.874364 0.35765 0.70777 0.401128 0.594958 0.515735C0.482145 0.630343 0.441302 0.797602 0.488596 0.951306L1.90742 5.5625H6.87494C7.11656 5.5625 7.31244 5.75838 7.31244 6C7.31244 6.24162 7.11656 6.4375 6.87494 6.4375H1.90743L0.488649 11.0485C0.441355 11.2022 0.482199 11.3695 0.595013 11.4841C0.707826 11.5987 0.874422 11.6422 1.02885 11.5973C4.93637 10.4622 8.5651 8.67249 11.7885 6.35508C11.9028 6.27288 11.9706 6.14067 11.9706 5.99986C11.9706 5.85904 11.9028 5.72683 11.7885 5.64463C8.56508 3.32726 4.93632 1.53762 1.02879 0.402511Z" fill="white"/>
</svg>
