<svg width="12" height="12" viewBox="0 0 12 12" fill="none" xmlns="http://www.w3.org/2000/svg">
<path fill-rule="evenodd" clip-rule="evenodd" d="M10.1496 0.347038C8.94682 0.226763 7.26297 0.166626 6.00008 0.166626C4.73719 0.166626 3.05335 0.226763 1.8506 0.347038C1.42963 0.347038 1.06881 0.527451 0.82826 0.828138C0.58771 1.12883 0.407298 1.42951 0.34716 1.85047C0.226885 3.05322 0.166748 4.73707 0.166748 5.99996C0.166748 6.94234 0.233721 8.11913 0.292703 9.15551C0.312763 9.50798 0.331898 9.8442 0.34716 10.1494C0.407298 10.9312 1.00867 11.5927 1.8506 11.6529C3.05335 11.7732 4.73719 11.8333 6.00008 11.8333C6.94246 11.8333 8.11942 11.7663 9.15578 11.7073C9.50819 11.6873 9.84437 11.6681 10.1496 11.6529C10.9314 11.5927 11.5929 10.9914 11.653 10.1494C11.7733 8.94669 11.8334 7.26285 11.8334 5.99996C11.8334 4.73707 11.7733 3.05322 11.653 1.85047C11.5929 1.06869 10.9915 0.407176 10.1496 0.347038ZM6 4.49996C5.69388 4.49996 5.38776 4.19384 5.38776 3.88771C5.38776 3.58159 5.69388 3.27547 6 3.27547C6.30612 3.27547 6.61225 3.58159 6.61225 3.88771C6.61225 4.19384 6.30612 4.49996 6 4.49996ZM6.00008 8.63261C6.3062 8.63261 6.48988 8.38772 6.48988 8.14282V5.69384C6.48988 5.38772 6.3062 5.20404 6.00008 5.20404C5.69396 5.20404 5.51028 5.44894 5.51028 5.69384V8.14282C5.51028 8.44894 5.69396 8.63261 6.00008 8.63261Z" fill="white"/>
</svg>
