<svg width="12" height="12" viewBox="0 0 12 12" fill="none" xmlns="http://www.w3.org/2000/svg">
<path d="M11.653 1.85047C11.5929 1.06869 10.9915 0.407176 10.1496 0.347038C8.94682 0.226763 7.26297 0.166626 6.00008 0.166626C4.73719 0.166626 3.05335 0.226763 1.8506 0.347038C1.42963 0.347038 1.06881 0.527451 0.82826 0.828138C0.58771 1.12883 0.407298 1.42951 0.34716 1.85047C0.226885 3.05322 0.166748 4.73707 0.166748 5.99996C0.166748 7.26285 0.287023 8.94669 0.34716 10.1494C0.407298 10.9312 1.00867 11.5927 1.8506 11.6529C3.05335 11.7732 4.73719 11.8333 6.00008 11.8333C7.26297 11.8333 8.94682 11.713 10.1496 11.6529C10.9314 11.5927 11.5929 10.9914 11.653 10.1494C11.7733 8.94669 11.8334 7.26285 11.8334 5.99996C11.8334 4.73707 11.7733 3.05322 11.653 1.85047ZM8.10489 5.0979L5.69939 7.5034C5.57912 7.56353 5.51898 7.62367 5.39871 7.62367C5.27843 7.62367 5.15816 7.56353 5.09802 7.5034L3.89527 6.30065C3.71486 6.12023 3.71486 5.81955 3.89527 5.63913C4.07568 5.45872 4.37637 5.45872 4.55678 5.63913L5.45884 6.5412L7.56365 4.43638C7.74407 4.25597 8.04475 4.25597 8.22517 4.43638C8.2853 4.67693 8.2853 4.91748 8.10489 5.0979Z" fill="white"/>
</svg>
