<svg width="10" height="10" viewBox="0 0 10 10" fill="none" xmlns="http://www.w3.org/2000/svg">
<path fill-rule="evenodd" clip-rule="evenodd" d="M5 10C7.76142 10 10 7.76142 10 5C10 2.23858 7.76142 0 5 0C2.23858 0 0 2.23858 0 5C0 7.76142 2.23858 10 5 10ZM4.83612 4.73052V3.65554C4.7062 3.66726 4.59282 3.68846 4.49598 3.71915C4.33931 3.76879 4.22387 3.83499 4.14966 3.91773C4.07957 4.00047 4.04453 4.09314 4.04453 4.19574C4.04453 4.3182 4.09194 4.41584 4.18677 4.48865C4.28571 4.56147 4.41146 4.61939 4.56401 4.66241C4.65033 4.68612 4.74103 4.70882 4.83612 4.73052ZM5.23191 5.27883C5.33927 5.30249 5.44028 5.32869 5.53494 5.35745C5.69161 5.40047 5.81736 5.45839 5.91218 5.53121C6.01113 5.60402 6.06061 5.7 6.06061 5.81915C6.06061 5.92175 6.0235 6.01442 5.94929 6.09716C5.87508 6.1766 5.75964 6.23948 5.60297 6.28582C5.49983 6.31632 5.37614 6.33678 5.23191 6.3472V5.27883ZM5.23191 6.77079C5.50494 6.75544 5.73789 6.71293 5.93074 6.64326C6.18223 6.55059 6.36776 6.42979 6.48732 6.28085C6.60688 6.12861 6.66667 5.96478 6.66667 5.78936C6.66667 5.60733 6.61925 5.45839 6.52443 5.34255C6.4296 5.22671 6.30385 5.13404 6.14719 5.06454C5.99464 4.99504 5.82354 4.93877 5.63389 4.89574C5.4999 4.86467 5.3659 4.83619 5.23191 4.81029V3.64843C5.38287 3.6567 5.53748 3.67861 5.69573 3.71418C5.90188 3.75721 6.09771 3.82837 6.28324 3.92766L6.48732 3.5305C6.30592 3.43121 6.09153 3.35508 5.84416 3.30213C5.64146 3.25874 5.43738 3.23312 5.23191 3.22529V2.66667H4.83612V3.23058C4.57107 3.24739 4.34431 3.2911 4.15584 3.3617C3.91259 3.45106 3.73119 3.57187 3.61163 3.72411C3.49619 3.87305 3.43847 4.03688 3.43847 4.2156C3.43847 4.40095 3.48588 4.55319 3.5807 4.67234C3.67553 4.78818 3.79922 4.88085 3.95176 4.95035C4.10843 5.01986 4.27953 5.07778 4.46506 5.12411C4.58963 5.15238 4.71332 5.1785 4.83612 5.20247V6.35129C4.61493 6.33967 4.40054 6.30296 4.19295 6.24114C3.93733 6.16501 3.72707 6.06903 3.56215 5.95319L3.33333 6.34043C3.50649 6.4695 3.74356 6.57541 4.04453 6.65816C4.29814 6.72509 4.56201 6.76382 4.83612 6.77436V7.33333H5.23191V6.77079Z" fill="white"/>
</svg>
