<svg width="11" height="10" viewBox="0 0 11 10" fill="none" xmlns="http://www.w3.org/2000/svg">
<path d="M5.06128 0C2.27806 0 0.0102539 2.2449 0.0102539 5C0.0102539 7.7551 2.27806 10 5.06128 10C7.84449 10 10.1123 7.7551 10.1123 5C10.1123 2.2449 7.84449 0 5.06128 0ZM5.57669 5L3.82429 6.78572C3.72121 6.83674 3.66967 6.88776 3.56659 6.88776C3.4635 6.88776 3.36042 6.83674 3.30888 6.78572C3.15426 6.63265 3.15426 6.37755 3.30888 6.22449L4.75203 4.79592V2.44898C4.75203 2.2449 4.90665 2.04082 5.16436 2.04082C5.42206 2.04082 5.57669 2.19388 5.57669 2.44898V5Z" fill="white" fill-opacity="0.5"/>
</svg>
