<svg width="11" height="10" viewBox="0 0 11 10" fill="none" xmlns="http://www.w3.org/2000/svg">
<path d="M6.85882 4.74492C7.99854 4.74492 8.93104 3.82656 8.93104 2.70411C8.93104 1.58166 7.99854 0.66329 6.85882 0.66329C6.80702 0.66329 6.75521 0.66329 6.70341 0.66329C7.01424 1.17349 7.22146 1.78574 7.22146 2.39798C7.22146 3.26533 6.85882 4.08166 6.28896 4.6939C6.44438 4.74492 6.6516 4.74492 6.85882 4.74492Z" fill="white" fill-opacity="0.5"/>
<path d="M7.73953 5.81628H7.22148C7.99856 6.47954 8.51661 7.49995 8.51661 8.6224C8.51661 8.8775 8.46481 9.08158 8.413 9.28566C9.08647 9.18362 9.50091 9.03056 9.75994 8.8775C10.019 8.72444 10.1226 8.46934 10.1226 8.16322C10.1226 6.88771 9.03467 5.81628 7.73953 5.81628Z" fill="white" fill-opacity="0.5"/>
<path d="M3.75048 4.7449C4.37214 4.7449 4.8902 4.54082 5.35644 4.13265C5.8745 3.72449 6.13352 3.06122 6.13352 2.39796C6.13352 1.88776 5.97811 1.37755 5.66728 1.02041C5.25283 0.408163 4.57936 0 3.75048 0C2.45535 0 1.36743 1.07143 1.36743 2.34694C1.36743 3.67347 2.45535 4.7449 3.75048 4.7449Z" fill="white" fill-opacity="0.5"/>
<path d="M5.14924 5.96944C4.99382 5.96944 4.89021 5.91842 4.73479 5.91842H2.76619C1.26384 5.91842 0.0205078 7.14291 0.0205078 8.6225C0.0205078 8.97964 0.175924 9.23475 0.43495 9.43883C0.849393 9.69393 1.83369 10 3.75049 10C5.66729 10 6.59978 9.69393 7.06603 9.43883C7.06603 9.43883 7.11784 9.38781 7.16964 9.38781C7.37686 9.23475 7.53228 8.97964 7.53228 8.6225C7.48048 7.29597 6.49617 6.17352 5.14924 5.96944Z" fill="white" fill-opacity="0.5"/>
</svg>
