<svg width="26" height="26" viewBox="0 0 26 26" fill="none" xmlns="http://www.w3.org/2000/svg">
<circle cx="13" cy="13" r="12.5" stroke="white"/>
<circle cx="13" cy="13" r="10" fill="#D9D9D9" fill-opacity="0.25"/>
<path d="M13 14.1598C13.812 14.1598 14.453 13.5585 14.5385 12.7853C14.5812 12.2698 14.6239 11.8402 14.6239 11.4966C14.6239 11.153 14.6239 10.7234 14.5385 10.2079C14.453 9.43475 13.812 8.83337 13 8.83337C12.6154 8.83337 12.2308 8.96224 11.9744 9.21997C11.7179 9.4777 11.5043 9.77839 11.4615 10.165C11.4188 10.6805 11.3761 11.11 11.3761 11.4536C11.3761 11.7973 11.3761 12.2268 11.4615 12.7423C11.547 13.5585 12.188 14.1598 13 14.1598Z" fill="white"/>
<path d="M15.9914 11.3248C15.8205 11.3248 15.6496 11.4537 15.6496 11.6684C15.6496 12.0121 15.6068 12.4416 15.5641 12.9571C15.4359 14.2458 14.3248 15.2337 12.9573 15.2337C11.5897 15.2337 10.5214 14.2458 10.3932 12.9571C10.3504 12.4416 10.3077 12.0121 10.3077 11.6684C10.3077 11.4966 10.1795 11.3248 9.96581 11.3248C9.75213 11.3248 9.66666 11.4966 9.66666 11.6684C9.66666 12.055 9.7094 12.4846 9.75213 13.0001C9.88034 14.5035 11.1197 15.7062 12.6581 15.8351V16.8231C12.6581 16.9949 12.7863 17.1667 13 17.1667C13.2137 17.1667 13.3419 17.0379 13.3419 16.8231V15.8351C14.8803 15.7062 16.1197 14.5035 16.2479 13.0001C16.2906 12.4846 16.3333 12.0121 16.3333 11.6684C16.3333 11.4966 16.1624 11.3248 15.9914 11.3248Z" fill="white"/>
</svg>
