<svg width="13" height="12" viewBox="0 0 13 12" fill="none" xmlns="http://www.w3.org/2000/svg">
<path fill-rule="evenodd" clip-rule="evenodd" d="M5.82169 0.436652C6.07264 -0.145551 6.92736 -0.145551 7.17831 0.436652L8.60913 3.75617L12.323 4.04348C12.9744 4.09387 13.2385 4.87825 12.7422 5.28846L9.91265 7.62735L10.7771 11.1244C10.9288 11.7378 10.2373 12.2226 9.67961 11.8939L6.5 10.0199L3.32039 11.8939C2.76272 12.2226 2.07124 11.7378 2.22286 11.1244L3.08735 7.62735L0.257755 5.28846C-0.238521 4.87825 0.025601 4.09387 0.676972 4.04348L4.39087 3.75617L5.82169 0.436652ZM6.5 1.80858L5.37061 4.42876C5.26482 4.6742 5.02561 4.8419 4.75101 4.86314L1.81954 5.08992L4.05301 6.93606C4.26223 7.10899 4.3536 7.38034 4.28968 7.63891L3.60732 10.3992L6.11707 8.92004C6.35216 8.78147 6.64784 8.78147 6.88293 8.92004L9.39268 10.3992L8.71032 7.63891C8.6464 7.38034 8.73777 7.10899 8.94699 6.93606L11.1805 5.08992L8.24899 4.86314C7.97439 4.8419 7.73518 4.6742 7.62939 4.42876L6.5 1.80858Z" fill="#FF6E34"/>
<path d="M5.37061 4.42876L6.5 1.80858L7.62939 4.42876C7.73518 4.6742 7.97439 4.8419 8.24899 4.86314L11.1805 5.08992L8.94699 6.93606C8.73777 7.10899 8.6464 7.38034 8.71032 7.63891L9.39268 10.3992L6.88293 8.92004C6.64784 8.78147 6.35216 8.78147 6.11707 8.92004L3.60732 10.3992L4.28968 7.63891C4.3536 7.38034 4.26223 7.10899 4.05301 6.93606L1.81954 5.08992L4.75101 4.86314C5.02561 4.8419 5.26482 4.6742 5.37061 4.42876Z" fill="#FF6E34"/>
</svg>
