<svg width="78" height="154" viewBox="0 0 78 154" fill="none" xmlns="http://www.w3.org/2000/svg">
<path d="M64.3792 0.118757C45.262 3.40272 28.0713 13.7361 16.2022 29.0781C4.33319 44.4201 -1.3512 63.6552 0.271747 82.9844C1.89469 102.314 10.707 120.331 24.9681 133.479C39.2293 146.627 57.9025 153.95 77.2996 154L77.3064 151.345C58.5739 151.296 40.5405 144.225 26.7679 131.527C12.9953 118.83 4.48491 101.429 2.91757 82.7622C1.35022 64.0952 6.83987 45.5192 18.3023 30.7028C29.7647 15.8864 46.3665 5.90701 64.8287 2.73556L64.3792 0.118757Z" fill="url(#paint0_linear_247_1153)"/>
<defs>
<linearGradient id="paint0_linear_247_1153" x1="25.4028" y1="364.972" x2="80.0833" y2="-0.999997" gradientUnits="userSpaceOnUse">
<stop stop-color="#C60000"/>
<stop offset="1" stop-color="#FF7020"/>
</linearGradient>
</defs>
</svg>
