<svg width="11" height="10" viewBox="0 0 11 10" fill="none" xmlns="http://www.w3.org/2000/svg">
<path d="M8.48583 8.6527H7.67139V7.50989H7.88617C8.17768 7.50946 8.45712 7.39812 8.66325 7.20029C8.86938 7.00246 8.98538 6.73426 8.98584 6.45449V4.08971H9.16625C9.21182 4.08971 9.25553 4.07234 9.28775 4.04141C9.31998 4.01048 9.33808 3.96854 9.33808 3.9248V2.98648L9.79341 3.35092C9.81137 3.36494 9.83384 3.37252 9.85699 3.37236C9.87149 3.37243 9.88583 3.36935 9.89892 3.36336C9.91201 3.35736 9.92352 3.3486 9.93259 3.33773C9.94095 3.32814 9.94723 3.31706 9.95106 3.30511C9.9549 3.29317 9.95622 3.28061 9.95494 3.26817C9.95366 3.25574 9.94981 3.24367 9.94361 3.23267C9.93741 3.22168 9.92899 3.21199 9.91884 3.20416L9.34667 2.74076V2.10422L10.8622 1.2434C10.9305 1.20492 10.9801 1.14194 11.0001 1.06834C11.0201 0.994734 11.0088 0.916528 10.9687 0.850923C10.9286 0.785319 10.863 0.737691 10.7863 0.718517C10.7096 0.699343 10.6281 0.710193 10.5597 0.748681L8.96694 1.65567H8.42913C8.37702 1.65567 8.32702 1.67542 8.29001 1.71063C8.253 1.74584 8.23199 1.79366 8.23153 1.84367V3.91656C8.23362 3.95965 8.2524 4.00043 8.28418 4.03094C8.31596 4.06144 8.35846 4.07946 8.40336 4.08146V6.45449C8.40336 6.58569 8.34905 6.71153 8.25238 6.80431C8.15571 6.89709 8.0246 6.94921 7.88789 6.94921H7.67139V0.483179C7.67139 0.355032 7.61835 0.232134 7.52393 0.14152C7.42952 0.0509063 7.30147 0 7.16794 0H1.32594C1.19226 -7.42158e-07 1.06403 0.0508527 0.969338 0.141419C0.874651 0.231986 0.821228 0.354881 0.820774 0.483179V8.6527H0.00976562V10H8.48583V8.6527ZM6.30711 3.80607H2.18334V1.58311H6.30711V3.80607Z" fill="#FF530E"/>
</svg>
