<svg width="12" height="12" viewBox="0 0 12 12" fill="none" xmlns="http://www.w3.org/2000/svg">
<path d="M11.8853 9.27211L7.82526 5.21201L8.29289 4.74438C8.54505 4.49225 8.6839 4.15702 8.6839 3.80045C8.6839 3.44388 8.54505 3.10864 8.29289 2.85651L5.82736 0.390983C5.57523 0.138852 5.24002 0 4.88345 0C4.52688 0 4.19165 0.138852 3.93952 0.390983L0.391227 3.9393C0.139123 4.19143 0.000244141 4.52664 0.000244141 4.88321C0.000244141 5.23978 0.139123 5.57501 0.391227 5.82711L2.85676 8.29264C3.10889 8.54478 3.44412 8.68363 3.80069 8.68363C4.15726 8.68363 4.49247 8.54478 4.7446 8.29264L5.21225 7.82499L6.42934 9.04208C6.50248 9.11522 6.60156 9.15651 6.705 9.15698L7.39848 9.15993L7.27741 9.61323C7.24127 9.7485 7.28003 9.89279 7.37903 9.99179L7.7317 10.3445C7.81559 10.4283 7.93279 10.4697 8.05083 10.4571L8.6726 10.3905L8.57548 10.9534C8.55381 11.079 8.59449 11.2073 8.68466 11.2974L9.27233 11.8851C9.3462 11.959 9.44615 12 9.54965 12C9.56144 12 9.57331 11.9995 9.58516 11.9984L11.472 11.8269C11.6606 11.8098 11.81 11.6603 11.8271 11.4718L11.9986 9.58494C12.0092 9.46902 11.9676 9.35441 11.8853 9.27211ZM6.10462 4.18293L4.18318 6.10437C4.10962 6.17793 4.00986 6.21927 3.90584 6.21927C3.80182 6.21927 3.70203 6.17793 3.62847 6.10437L2.40498 4.88085C2.2518 4.72767 2.2518 4.47933 2.40498 4.32615L4.32639 2.40471C4.47955 2.25152 4.72792 2.25152 4.8811 2.40471L6.10462 3.62823C6.1782 3.70179 6.21949 3.80154 6.21949 3.90557C6.21952 4.00961 6.1782 4.10937 6.10462 4.18293Z" fill="white" fill-opacity="0.5"/>
</svg>
