
<svg width="10" height="12" viewBox="0 0 10 12" fill="none" xmlns="http://www.w3.org/2000/svg">
<path d="M9.11557 5.54059C9.10165 5.48015 9.07295 5.4241 9.03205 5.37747C8.99115 5.33084 8.93932 5.29508 8.8812 5.27341L6.1812 4.26091L6.86557 0.824969C6.88131 0.745379 6.87114 0.662841 6.83656 0.589451C6.80197 0.516062 6.74479 0.45568 6.67339 0.417157C6.60128 0.3788 6.51851 0.365358 6.43798 0.378923C6.35744 0.392487 6.28364 0.432297 6.22807 0.492157L0.978075 6.11716C0.935057 6.16179 0.903931 6.21651 0.887551 6.27629C0.871172 6.33608 0.870062 6.39902 0.884325 6.45934C0.899 6.51946 0.927971 6.57514 0.968776 6.62165C1.00958 6.66817 1.06101 6.70415 1.1187 6.72653L3.8187 7.73903L3.13432 11.175C3.11859 11.2546 3.12875 11.3371 3.16334 11.4105C3.19793 11.4839 3.25511 11.5443 3.32651 11.5828C3.38033 11.6099 3.43967 11.6244 3.49995 11.625C3.55089 11.6252 3.60133 11.6149 3.64811 11.5947C3.69489 11.5746 3.737 11.545 3.77182 11.5078L9.02182 5.88278C9.06484 5.83815 9.09597 5.78343 9.11235 5.72365C9.12873 5.66386 9.12984 5.60092 9.11557 5.54059Z" fill="white"/>
</svg>