<svg width="14" height="14" viewBox="0 0 14 14" fill="none" xmlns="http://www.w3.org/2000/svg">
<path d="M0 7C0 9.41223 1.96276 11.375 4.375 11.375H7.875V2.625H4.375C1.96276 2.625 0 4.58776 0 7Z" fill="white" fill-opacity="0.5"/>
<path d="M9.40882 4.78561L12.9088 5.67556C12.9815 5.69393 13.0537 5.70248 13.125 5.70248C13.5159 5.70248 13.8718 5.4393 13.9727 5.04324C14.0919 4.57455 13.8086 4.0986 13.3403 3.9794L9.84034 3.08944C9.3708 2.97067 8.89613 3.25393 8.7765 3.72177C8.6573 4.19045 8.94056 4.66641 9.40882 4.78561V4.78561Z" fill="white" fill-opacity="0.5"/>
<path d="M13.3403 6.60393L9.84034 5.71398C9.3708 5.59734 8.89613 5.87847 8.7765 6.34631C8.6573 6.81499 8.94056 7.29095 9.40882 7.41015L12.9088 8.3001C12.9815 8.31847 13.0537 8.32702 13.125 8.32702C13.5159 8.32702 13.8718 8.06383 13.9727 7.66778C14.0919 7.19909 13.8086 6.72314 13.3403 6.60393V6.60393Z" fill="white" fill-opacity="0.5"/>
<path d="M13.3403 9.229L9.84034 8.33904C9.3708 8.22155 8.89613 8.50311 8.7765 8.97137C8.6573 9.44006 8.94056 9.91601 9.40882 10.0352L12.9088 10.9252C12.9815 10.9435 13.0537 10.9521 13.125 10.9521C13.5159 10.9521 13.8718 10.6889 13.9727 10.2928C14.0919 9.82415 13.8086 9.3482 13.3403 9.229V9.229Z" fill="white" fill-opacity="0.5"/>
</svg>
