<svg width="12" height="13" viewBox="0 0 12 13" fill="none" xmlns="http://www.w3.org/2000/svg">
<path d="M2 5.2V3.9C2 2.86566 2.42143 1.87368 3.17157 1.14228C3.92172 0.410892 4.93913 0 6 0C7.06087 0 8.07828 0.410892 8.82843 1.14228C9.57857 1.87368 10 2.86566 10 3.9V5.2H10.6667C11.0203 5.2 11.3594 5.33696 11.6095 5.58076C11.8595 5.82456 12 6.15522 12 6.5V11.7C12 12.0448 11.8595 12.3754 11.6095 12.6192C11.3594 12.863 11.0203 13 10.6667 13H1.33333C0.979711 13 0.640573 12.863 0.390524 12.6192C0.140476 12.3754 0 12.0448 0 11.7V6.5C0 5.785 0.6 5.2 1.33333 5.2H2ZM5.33333 9.5745V11.05H6.66667V9.5745C6.92086 9.43141 7.11952 9.21055 7.23184 8.94616C7.34416 8.68176 7.36387 8.38863 7.2879 8.1122C7.21193 7.83578 7.04454 7.59152 6.81168 7.41731C6.57882 7.2431 6.29351 7.14867 6 7.14867C5.70649 7.14867 5.42118 7.2431 5.18832 7.41731C4.95546 7.59152 4.78807 7.83578 4.7121 8.1122C4.63613 8.38863 4.65584 8.68176 4.76816 8.94616C4.88048 9.21055 5.07914 9.43141 5.33333 9.5745ZM4 3.9V5.2H8V3.9C8 3.38283 7.78929 2.88684 7.41421 2.52114C7.03914 2.15545 6.53043 1.95 6 1.95C5.46957 1.95 4.96086 2.15545 4.58579 2.52114C4.21071 2.88684 4 3.38283 4 3.9Z" fill="#FF612F"/>
</svg>
